<svg xmlns="http://www.w3.org/2000/svg" width="512" height="512" viewBox="0 0 512 512">
  <defs>
    <linearGradient id="bg" x1="0" y1="0" x2="1" y2="1">
      <stop offset="0%" stop-color="#1B2A40" />
      <stop offset="100%" stop-color="#132033" />
    </linearGradient>
    <linearGradient id="cyanGlow" x1="0" y1="0" x2="1" y2="0">
      <stop offset="0%" stop-color="#35D9FF" />
      <stop offset="100%" stop-color="#16B5FF" />
    </linearGradient>
  </defs>

  <rect x="24" y="24" width="464" height="464" rx="104" fill="url(#bg)" />

  <!-- Gear ring -->
  <g fill="#B8C4D6">
    <rect x="244" y="66" width="24" height="40" rx="8" />
    <rect x="244" y="406" width="24" height="40" rx="8" />
    <rect x="406" y="244" width="40" height="24" rx="8" />
    <rect x="66" y="244" width="40" height="24" rx="8" />
    <rect x="357.8" y="101.8" width="24" height="40" rx="8" transform="rotate(45 369.8 121.8)" />
    <rect x="130.2" y="370.2" width="24" height="40" rx="8" transform="rotate(45 142.2 390.2)" />
    <rect x="370.2" y="357.8" width="24" height="40" rx="8" transform="rotate(135 382.2 377.8)" />
    <rect x="101.8" y="130.2" width="24" height="40" rx="8" transform="rotate(135 113.8 150.2)" />
  </g>

  <circle cx="256" cy="256" r="146" fill="none" stroke="#B8C4D6" stroke-width="26" />
  <circle cx="256" cy="256" r="108" fill="#1A273B" />

  <!-- Stylized toolpath C -->
  <path d="M322 184
           C300 160, 268 146, 234 146
           C173 146, 124 196, 124 256
           C124 316, 173 366, 234 366
           C269 366, 301 352, 323 327"
        fill="none"
        stroke="url(#cyanGlow)"
        stroke-width="30"
        stroke-linecap="round"
        stroke-linejoin="round" />

  <!-- End mill -->
  <g transform="translate(333 320)">
    <rect x="0" y="-34" width="28" height="74" rx="8" fill="#E6ECF5" />
    <path d="M14 46 L2 70 H26 Z" fill="#E6ECF5" />
    <path d="M5 -20 L23 -2 M5 0 L23 18 M5 20 L23 38" stroke="#8FA1B8" stroke-width="4" />
  </g>
</svg>
