0
SECTION
2
HEADER
9
$ACADVER
1
AC1018
9
$INSUNITS
70
0
0
ENDSEC
0
SECTION
2
TABLES
0
TABLE
2
LAYER
5
30
100
AcDbSymbolTable
70
1
0
LAYER
5
31
100
AcDbLayerTableRecord
2
0
70
0
62
7
6
CONTINUOUS
0
ENDTAB
0
ENDSEC
0
SECTION
2
ENTITIES
0
LWPOLYLINE
5
32
100
AcDbEntity
8
0
100
AcDbPolyline
90
34
70
1
10
7.39216
20
8.50058
30
0
10
7.39591
20
8.46254
30
0
10
7.407
20
8.42596
30
0
10
7.42502
20
8.39224
30
0
10
7.44927
20
8.36269
30
0
10
7.47882
20
8.33844
30
0
10
7.51254
20
8.32042
30
0
10
7.54912
20
8.30933
30
0
10
7.58716
20
8.30558
30
0
10
7.6252
20
8.30933
30
0
10
7.66178
20
8.32042
30
0
10
7.6955
20
8.33844
30
0
10
7.72505
20
8.36269
30
0
10
7.7493
20
8.39224
30
0
10
7.76732
20
8.42596
30
0
10
7.77841
20
8.46254
30
0
10
7.78216
20
8.50058
30
0
10
7.78216
20
8.71058
30
0
10
7.77841
20
8.74862
30
0
10
7.76732
20
8.7852
30
0
10
7.7493
20
8.81892
30
0
10
7.72505
20
8.84846
30
0
10
7.6955
20
8.87272
30
0
10
7.66178
20
8.89074
30
0
10
7.6252
20
8.90183
30
0
10
7.58716
20
8.90558
30
0
10
7.54912
20
8.90183
30
0
10
7.51254
20
8.89074
30
0
10
7.47882
20
8.87272
30
0
10
7.44927
20
8.84846
30
0
10
7.42502
20
8.81892
30
0
10
7.407
20
8.7852
30
0
10
7.39591
20
8.74862
30
0
10
7.39216
20
8.71058
30
0
0
LWPOLYLINE
5
33
100
AcDbEntity
8
0
100
AcDbPolyline
90
34
70
1
10
7.39216
20
1.27558
30
0
10
7.39591
20
1.23754
30
0
10
7.407
20
1.20096
30
0
10
7.42502
20
1.16724
30
0
10
7.44927
20
1.13769
30
0
10
7.47882
20
1.11344
30
0
10
7.51254
20
1.09542
30
0
10
7.54912
20
1.08433
30
0
10
7.58716
20
1.08058
30
0
10
7.6252
20
1.08433
30
0
10
7.66178
20
1.09542
30
0
10
7.6955
20
1.11344
30
0
10
7.72505
20
1.13769
30
0
10
7.7493
20
1.16724
30
0
10
7.76732
20
1.20096
30
0
10
7.77841
20
1.23754
30
0
10
7.78216
20
1.27558
30
0
10
7.78216
20
1.48558
30
0
10
7.77841
20
1.52362
30
0
10
7.76732
20
1.5602
30
0
10
7.7493
20
1.59392
30
0
10
7.72505
20
1.62346
30
0
10
7.6955
20
1.64772
30
0
10
7.66178
20
1.66574
30
0
10
7.6252
20
1.67683
30
0
10
7.58716
20
1.68058
30
0
10
7.54912
20
1.67683
30
0
10
7.51254
20
1.66574
30
0
10
7.47882
20
1.64772
30
0
10
7.44927
20
1.62346
30
0
10
7.42502
20
1.59392
30
0
10
7.407
20
1.5602
30
0
10
7.39591
20
1.52362
30
0
10
7.39216
20
1.48558
30
0
0
LWPOLYLINE
5
34
100
AcDbEntity
8
0
100
AcDbPolyline
90
4
70
1
10
12.5669
20
1.1709
30
0
10
12.4484
20
-0.155528
30
0
10
12.5375
20
-0.0307232
30
0
10
12.6364
20
1.07582
30
0
0
LWPOLYLINE
5
35
100
AcDbEntity
8
0
100
AcDbPolyline
90
6
70
1
10
11.6603
20
9.87428
30
0
10
11.6216
20
9.59817
30
0
10
11.7285
20
9.4866
30
0
10
10.9776
20
9.59178
30
0
10
11.1126
20
9.66947
30
0
10
11.1512
20
9.94558
30
0
0
LWPOLYLINE
5
36
100
AcDbEntity
8
0
100
AcDbPolyline
90
6
70
1
10
4.19672
20
9.59178
30
0
10
3.50558
20
9.49497
30
0
10
3.58067
20
9.60012
30
0
10
3.54294
20
9.86943
30
0
10
4.03789
20
9.93877
30
0
10
4.07736
20
9.65701
30
0
0
LWPOLYLINE
5
37
100
AcDbEntity
8
0
100
AcDbPolyline
90
6
70
1
10
1.91942
20
0.0570196
30
0
10
2.1142
20
0.0371328
30
0
10
2.22659
20
-0.0907012
30
0
10
2.1494
20
0.771902
30
0
10
2.07148
20
0.664549
30
0
10
1.88787
20
0.64812
30
0
0
LWPOLYLINE
5
38
100
AcDbEntity
8
0
100
AcDbPolyline
90
3
70
0
10
13.298
20
9.3558
30
0
10
12.9296
20
9.38572
30
0
10
12.5608
20
9.40931
30
0
0
LWPOLYLINE
5
39
100
AcDbEntity
8
0
100
AcDbPolyline
90
2
70
0
10
12.5608
20
9.40931
30
0
10
12.1917
20
9.42656
30
0
0
LWPOLYLINE
5
3A
100
AcDbEntity
8
0
100
AcDbPolyline
90
2
70
0
10
12.1917
20
9.42656
30
0
10
12.1914
20
9.42041
30
0
0
LWPOLYLINE
5
3B
100
AcDbEntity
8
0
100
AcDbPolyline
90
2
70
0
10
12.1914
20
9.42041
30
0
10
12.1147
20
9.43249
30
0
0
LWPOLYLINE
5
3C
100
AcDbEntity
8
0
100
AcDbPolyline
90
2
70
0
10
12.1147
20
9.43249
30
0
10
11.7681
20
9.48105
30
0
0
LWPOLYLINE
5
3D
100
AcDbEntity
8
0
100
AcDbPolyline
90
2
70
0
10
11.7681
20
9.48105
30
0
10
11.8859
20
9.60102
30
0
0
LWPOLYLINE
5
3E
100
AcDbEntity
8
0
100
AcDbPolyline
90
2
70
0
10
11.8859
20
9.60102
30
0
10
11.9495
20
10.0554
30
0
0
LWPOLYLINE
5
3F
100
AcDbEntity
8
0
100
AcDbPolyline
90
2
70
0
10
11.9495
20
10.0554
30
0
10
13.1587
20
9.88605
30
0
0
LWPOLYLINE
5
40
100
AcDbEntity
8
0
100
AcDbPolyline
90
10
70
0
10
13.1587
20
9.88605
30
0
10
13.1804
20
9.88492
30
0
10
13.2021
20
9.88758
30
0
10
13.2229
20
9.89396
30
0
10
13.2423
20
9.90386
30
0
10
13.2597
20
9.91698
30
0
10
13.2746
20
9.93293
30
0
10
13.2864
20
9.95121
30
0
10
13.2949
20
9.97127
30
0
10
13.2998
20
9.9925
30
0
0
LWPOLYLINE
5
41
100
AcDbEntity
8
0
100
AcDbPolyline
90
2
70
0
10
13.2998
20
9.9925
30
0
10
13.3778
20
10.5491
30
0
0
LWPOLYLINE
5
42
100
AcDbEntity
8
0
100
AcDbPolyline
90
10
70
0
10
13.3778
20
10.5491
30
0
10
13.3789
20
10.5708
30
0
10
13.3762
20
10.5924
30
0
10
13.3699
20
10.6133
30
0
10
13.36
20
10.6327
30
0
10
13.3468
20
10.6501
30
0
10
13.3309
20
10.6649
30
0
10
13.3126
20
10.6768
30
0
10
13.2926
20
10.6853
30
0
10
13.2713
20
10.6902
30
0
0
LWPOLYLINE
5
43
100
AcDbEntity
8
0
100
AcDbPolyline
90
2
70
0
10
13.2713
20
10.6902
30
0
10
11.1578
20
10.9863
30
0
0
LWPOLYLINE
5
44
100
AcDbEntity
8
0
100
AcDbPolyline
90
9
70
0
10
11.1578
20
10.9863
30
0
10
11.1333
20
10.9873
30
0
10
11.1091
20
10.9835
30
0
10
11.0861
20
10.975
30
0
10
11.0652
20
10.9623
30
0
10
11.0472
20
10.9457
30
0
10
11.0327
20
10.9259
30
0
10
11.0224
20
10.9036
30
0
10
11.0167
20
10.8798
30
0
0
LWPOLYLINE
5
45
100
AcDbEntity
8
0
100
AcDbPolyline
90
2
70
0
10
11.0167
20
10.8798
30
0
10
10.8499
20
9.68929
30
0
0
LWPOLYLINE
5
46
100
AcDbEntity
8
0
100
AcDbPolyline
90
2
70
0
10
10.8499
20
9.68929
30
0
10
10.938
20
9.59733
30
0
0
LWPOLYLINE
5
47
100
AcDbEntity
8
0
100
AcDbPolyline
90
2
70
0
10
10.938
20
9.59733
30
0
10
10.5914
20
9.64589
30
0
0
LWPOLYLINE
5
48
100
AcDbEntity
8
0
100
AcDbPolyline
90
2
70
0
10
10.5914
20
9.64589
30
0
10
10.5093
20
9.65729
30
0
0
LWPOLYLINE
5
49
100
AcDbEntity
8
0
100
AcDbPolyline
90
2
70
0
10
10.5093
20
9.65729
30
0
10
10.4683
20
9.66279
30
0
0
LWPOLYLINE
5
4A
100
AcDbEntity
8
0
100
AcDbPolyline
90
5
70
0
10
10.4683
20
9.66279
30
0
10
9.03094
20
9.80733
30
0
10
7.58716
20
9.85558
30
0
10
6.14338
20
9.80733
30
0
10
4.70605
20
9.66279
30
0
0
LWPOLYLINE
5
4B
100
AcDbEntity
8
0
100
AcDbPolyline
90
2
70
0
10
4.70605
20
9.66279
30
0
10
4.6641
20
9.65717
30
0
0
LWPOLYLINE
5
4C
100
AcDbEntity
8
0
100
AcDbPolyline
90
2
70
0
10
4.6641
20
9.65717
30
0
10
4.58295
20
9.64589
30
0
0
LWPOLYLINE
5
4D
100
AcDbEntity
8
0
100
AcDbPolyline
90
2
70
0
10
4.58295
20
9.64589
30
0
10
4.23634
20
9.59733
30
0
0
LWPOLYLINE
5
4E
100
AcDbEntity
8
0
100
AcDbPolyline
90
2
70
0
10
4.23634
20
9.59733
30
0
10
4.31884
20
9.72921
30
0
0
LWPOLYLINE
5
4F
100
AcDbEntity
8
0
100
AcDbPolyline
90
2
70
0
10
4.31884
20
9.72921
30
0
10
4.14462
20
10.9729
30
0
0
LWPOLYLINE
5
50
100
AcDbEntity
8
0
100
AcDbPolyline
90
9
70
0
10
4.14462
20
10.9729
30
0
10
4.13886
20
10.9967
30
0
10
4.12856
20
11.019
30
0
10
4.11412
20
11.0388
30
0
10
4.0961
20
11.0554
30
0
10
4.07518
20
11.0681
30
0
10
4.05218
20
11.0766
30
0
10
4.02797
20
11.0804
30
0
10
4.00349
20
11.0794
30
0
0
LWPOLYLINE
5
51
100
AcDbEntity
8
0
100
AcDbPolyline
90
2
70
0
10
4.00349
20
11.0794
30
0
10
1.94707
20
10.7913
30
0
0
LWPOLYLINE
5
52
100
AcDbEntity
8
0
100
AcDbPolyline
90
34
70
1
10
1.94707
20
10.7913
30
0
10
1.92326
20
10.7855
30
0
10
1.90102
20
10.7752
30
0
10
1.88122
20
10.7608
30
0
10
1.86462
20
10.7428
30
0
10
1.85185
20
10.7219
30
0
10
1.84341
20
10.6989
30
0
10
1.83962
20
10.6746
30
0
10
1.84062
20
10.6502
30
0
10
1.84143
20
10.6464
30
0
10
1.8434
20
10.6446
30
0
10
1.84642
20
10.6445
30
0
10
1.85037
20
10.6461
30
0
10
1.85515
20
10.6492
30
0
10
1.86063
20
10.6535
30
0
10
1.86672
20
10.6591
30
0
10
1.87329
20
10.6657
30
0
10
1.88023
20
10.6732
30
0
10
1.88744
20
10.6814
30
0
10
1.8948
20
10.6902
30
0
10
1.90219
20
10.6994
30
0
10
1.90952
20
10.7089
30
0
10
1.91665
20
10.7186
30
0
10
1.92349
20
10.7282
30
0
10
1.92992
20
10.7377
30
0
10
1.93583
20
10.7469
30
0
10
1.94111
20
10.7556
30
0
10
1.94564
20
10.7637
30
0
10
1.94931
20
10.7711
30
0
10
1.95202
20
10.7776
30
0
10
1.95364
20
10.783
30
0
10
1.95407
20
10.7873
30
0
10
1.95319
20
10.7901
30
0
10
1.9509
20
10.7915
30
0
0
LWPOLYLINE
5
53
100
AcDbEntity
8
0
100
AcDbPolyline
90
2
70
0
10
1.84062
20
10.6502
30
0
10
1.90999
20
10.155
30
0
0
LWPOLYLINE
5
54
100
AcDbEntity
8
0
100
AcDbPolyline
90
9
70
0
10
1.90999
20
10.155
30
0
10
1.91575
20
10.1312
30
0
10
1.92605
20
10.1089
30
0
10
1.94048
20
10.0891
30
0
10
1.95851
20
10.0725
30
0
10
1.97942
20
10.0598
30
0
10
2.00243
20
10.0513
30
0
10
2.02663
20
10.0475
30
0
10
2.05112
20
10.0485
30
0
0
LWPOLYLINE
5
55
100
AcDbEntity
8
0
100
AcDbPolyline
90
2
70
0
10
2.05112
20
10.0485
30
0
10
3.26289
20
10.2183
30
0
0
LWPOLYLINE
5
56
100
AcDbEntity
8
0
100
AcDbPolyline
90
2
70
0
10
3.26289
20
10.2183
30
0
10
3.3504
20
9.59355
30
0
0
LWPOLYLINE
5
57
100
AcDbEntity
8
0
100
AcDbPolyline
90
2
70
0
10
3.3504
20
9.59355
30
0
10
3.46597
20
9.48942
30
0
0
LWPOLYLINE
5
58
100
AcDbEntity
8
0
100
AcDbPolyline
90
2
70
0
10
3.46597
20
9.48942
30
0
10
3.11935
20
9.44086
30
0
0
LWPOLYLINE
5
59
100
AcDbEntity
8
0
100
AcDbPolyline
90
2
70
0
10
3.11935
20
9.44086
30
0
10
3.04262
20
9.42878
30
0
0
LWPOLYLINE
5
5A
100
AcDbEntity
8
0
100
AcDbPolyline
90
2
70
0
10
3.04262
20
9.42878
30
0
10
3.0424
20
9.43493
30
0
0
LWPOLYLINE
5
5B
100
AcDbEntity
8
0
100
AcDbPolyline
90
2
70
0
10
3.0424
20
9.43493
30
0
10
2.49561
20
9.40711
30
0
0
LWPOLYLINE
5
5C
100
AcDbEntity
8
0
100
AcDbPolyline
90
2
70
0
10
2.49561
20
9.40711
30
0
10
1.94969
20
9.36538
30
0
0
LWPOLYLINE
5
5D
100
AcDbEntity
8
0
100
AcDbPolyline
90
2
70
0
10
1.94969
20
9.36538
30
0
10
1.40501
20
9.30978
30
0
0
LWPOLYLINE
5
5E
100
AcDbEntity
8
0
100
AcDbPolyline
90
2
70
0
10
1.38737
20
9.28813
30
0
10
2.14583
20
0.811798
30
0
0
LWPOLYLINE
5
5F
100
AcDbEntity
8
0
100
AcDbPolyline
90
2
70
0
10
2.14583
20
0.811798
30
0
10
2.0389
20
0.933424
30
0
0
LWPOLYLINE
5
60
100
AcDbEntity
8
0
100
AcDbPolyline
90
6
70
0
10
2.0389
20
0.933424
30
0
10
2.02287
20
0.948684
30
0
10
2.00441
20
0.960879
30
0
10
1.98408
20
0.969628
30
0
10
1.96253
20
0.974655
30
0
10
1.94043
20
0.975803
30
0
0
LWPOLYLINE
5
61
100
AcDbEntity
8
0
100
AcDbPolyline
90
2
70
0
10
1.94043
20
0.975803
30
0
10
1.81688
20
0.971266
30
0
0
LWPOLYLINE
5
62
100
AcDbEntity
8
0
100
AcDbPolyline
90
9
70
0
10
1.81688
20
0.971266
30
0
10
1.7926
20
0.96797
30
0
10
1.76942
20
0.960001
30
0
10
1.74825
20
0.947665
30
0
10
1.72989
20
0.931435
30
0
10
1.71505
20
0.911935
30
0
10
1.7043
20
0.889915
30
0
10
1.69805
20
0.86622
30
0
10
1.69655
20
0.841762
30
0
0
LWPOLYLINE
5
63
100
AcDbEntity
8
0
100
AcDbPolyline
90
2
70
0
10
1.69655
20
0.841762
30
0
10
1.7403
20
-0.3496
30
0
0
LWPOLYLINE
5
64
100
AcDbEntity
8
0
100
AcDbPolyline
90
10
70
0
10
1.7403
20
-0.3496
30
0
10
1.74315
20
-0.371935
30
0
10
1.74996
20
-0.393396
30
0
10
1.76051
20
-0.413287
30
0
10
1.77446
20
-0.430963
30
0
10
1.79135
20
-0.445851
30
0
10
1.81064
20
-0.457467
30
0
10
1.8317
20
-0.465434
30
0
10
1.85384
20
-0.469494
30
0
10
1.87636
20
-0.469515
30
0
0
LWPOLYLINE
5
65
100
AcDbEntity
8
0
100
AcDbPolyline
90
2
70
0
10
1.87636
20
-0.469515
30
0
10
2.00376
20
-0.458115
30
0
0
LWPOLYLINE
5
66
100
AcDbEntity
8
0
100
AcDbPolyline
90
7
70
0
10
2.00376
20
-0.458115
30
0
10
2.02485
20
-0.454385
30
0
10
2.045
20
-0.447107
30
0
10
2.06361
20
-0.436497
30
0
10
2.08014
20
-0.422865
30
0
10
2.09409
20
-0.406611
30
0
10
2.10506
20
-0.388214
30
0
0
LWPOLYLINE
5
67
100
AcDbEntity
8
0
100
AcDbPolyline
90
2
70
0
10
2.10506
20
-0.388214
30
0
10
2.23016
20
-0.130597
30
0
0
LWPOLYLINE
5
68
100
AcDbEntity
8
0
100
AcDbPolyline
90
2
70
0
10
2.23016
20
-0.130597
30
0
10
2.25557
20
-0.414555
30
0
0
LWPOLYLINE
5
69
100
AcDbEntity
8
0
100
AcDbPolyline
90
10
70
0
10
2.25557
20
-0.414555
30
0
10
2.2562
20
-0.418084
30
0
10
2.25746
20
-0.421443
30
0
10
2.2593
20
-0.424522
30
0
10
2.26166
20
-0.427224
30
0
10
2.26446
20
-0.429461
30
0
10
2.26762
20
-0.431161
30
0
10
2.27103
20
-0.43227
30
0
10
2.27459
20
-0.432753
30
0
10
2.27817
20
-0.432592
30
0
0
LWPOLYLINE
5
6A
100
AcDbEntity
8
0
100
AcDbPolyline
90
2
70
0
10
2.27817
20
-0.432592
30
0
10
2.83854
20
-0.37031
30
0
0
LWPOLYLINE
5
6B
100
AcDbEntity
8
0
100
AcDbPolyline
90
2
70
0
10
2.83854
20
-0.37031
30
0
10
3.4012
20
-0.334782
30
0
0
LWPOLYLINE
5
6C
100
AcDbEntity
8
0
100
AcDbPolyline
90
2
70
0
10
3.4012
20
-0.334782
30
0
10
3.42601
20
-0.333456
30
0
0
LWPOLYLINE
5
6D
100
AcDbEntity
8
0
100
AcDbPolyline
90
2
70
0
10
3.42601
20
-0.333456
30
0
10
3.45166
20
-0.331395
30
0
0
LWPOLYLINE
5
6E
100
AcDbEntity
8
0
100
AcDbPolyline
90
2
70
0
10
3.45166
20
-0.331395
30
0
10
3.47816
20
-0.328831
30
0
0
LWPOLYLINE
5
6F
100
AcDbEntity
8
0
100
AcDbPolyline
90
2
70
0
10
3.47816
20
-0.328831
30
0
10
5.93629
20
0.0155118
30
0
0
LWPOLYLINE
5
70
100
AcDbEntity
8
0
100
AcDbPolyline
90
5
70
0
10
9.24223
20
0.0149225
30
0
10
8.41777
20
0.101556
30
0
10
7.58928
20
0.130579
30
0
10
6.76078
20
0.101851
30
0
10
5.93629
20
0.0155118
30
0
0
LWPOLYLINE
5
71
100
AcDbEntity
8
0
100
AcDbPolyline
90
2
70
0
10
9.24223
20
0.0149225
30
0
10
11.7559
20
-0.337199
30
0
0
LWPOLYLINE
5
72
100
AcDbEntity
8
0
100
AcDbPolyline
90
2
70
0
10
11.7559
20
-0.337199
30
0
10
11.7825
20
-0.33977
30
0
0
LWPOLYLINE
5
73
100
AcDbEntity
8
0
100
AcDbPolyline
90
2
70
0
10
11.7825
20
-0.33977
30
0
10
11.8081
20
-0.341827
30
0
0
LWPOLYLINE
5
74
100
AcDbEntity
8
0
100
AcDbPolyline
90
2
70
0
10
11.8081
20
-0.341827
30
0
10
11.8329
20
-0.34315
30
0
0
LWPOLYLINE
5
75
100
AcDbEntity
8
0
100
AcDbPolyline
90
2
70
0
10
11.8329
20
-0.34315
30
0
10
12.1208
20
-0.35797
30
0
0
LWPOLYLINE
5
76
100
AcDbEntity
8
0
100
AcDbPolyline
90
2
70
0
10
12.1208
20
-0.35797
30
0
10
12.4083
20
-0.379798
30
0
0
LWPOLYLINE
5
77
100
AcDbEntity
8
0
100
AcDbPolyline
90
9
70
0
10
12.4083
20
-0.379798
30
0
10
12.4122
20
-0.379758
30
0
10
12.416
20
-0.378955
30
0
10
12.4196
20
-0.37742
30
0
10
12.4229
20
-0.375212
30
0
10
12.4256
20
-0.372415
30
0
10
12.4278
20
-0.369137
30
0
10
12.4292
20
-0.365504
30
0
10
12.43
20
-0.361654
30
0
0
LWPOLYLINE
5
78
100
AcDbEntity
8
0
100
AcDbPolyline
90
2
70
0
10
12.43
20
-0.361654
30
0
10
12.4448
20
-0.195424
30
0
0
LWPOLYLINE
5
79
100
AcDbEntity
8
0
100
AcDbPolyline
90
2
70
0
10
12.4448
20
-0.195424
30
0
10
12.4854
20
-0.250891
30
0
0
LWPOLYLINE
5
7A
100
AcDbEntity
8
0
100
AcDbPolyline
90
6
70
0
10
12.4854
20
-0.250891
30
0
10
12.5002
20
-0.2678
30
0
10
12.5179
20
-0.281767
30
0
10
12.5378
20
-0.292339
30
0
10
12.5592
20
-0.299173
30
0
10
12.5815
20
-0.302047
30
0
0
LWPOLYLINE
5
7B
100
AcDbEntity
8
0
100
AcDbPolyline
90
2
70
0
10
12.5815
20
-0.302047
30
0
10
12.8177
20
-0.31098
30
0
0
LWPOLYLINE
5
7C
100
AcDbEntity
8
0
100
AcDbPolyline
90
10
70
0
10
12.8177
20
-0.31098
30
0
10
12.8395
20
-0.309901
30
0
10
12.8608
20
-0.305054
30
0
10
12.8809
20
-0.296587
30
0
10
12.8992
20
-0.284756
30
0
10
12.9152
20
-0.269924
30
0
10
12.9283
20
-0.252539
30
0
10
12.9383
20
-0.233133
30
0
10
12.9447
20
-0.212294
30
0
10
12.9474
20
-0.190657
30
0
0
LWPOLYLINE
5
7D
100
AcDbEntity
8
0
100
AcDbPolyline
90
2
70
0
10
12.9474
20
-0.190657
30
0
10
12.9964
20
1.14305
30
0
0
LWPOLYLINE
5
7E
100
AcDbEntity
8
0
100
AcDbPolyline
90
9
70
0
10
12.9964
20
1.14305
30
0
10
12.9949
20
1.1675
30
0
10
12.9886
20
1.19117
30
0
10
12.9779
20
1.21318
30
0
10
12.9631
20
1.23268
30
0
10
12.9447
20
1.24891
30
0
10
12.9236
20
1.26125
30
0
10
12.9004
20
1.26924
30
0
10
12.8762
20
1.27255
30
0
0
LWPOLYLINE
5
7F
100
AcDbEntity
8
0
100
AcDbPolyline
90
2
70
0
10
12.8762
20
1.27255
30
0
10
12.703
20
1.2791
30
0
0
LWPOLYLINE
5
80
100
AcDbEntity
8
0
100
AcDbPolyline
90
5
70
0
10
12.703
20
1.2791
30
0
10
12.6804
20
1.2779
30
0
10
12.6583
20
1.27262
30
0
10
12.6375
20
1.26343
30
0
10
12.6188
20
1.25065
30
0
0
LWPOLYLINE
5
81
100
AcDbEntity
8
0
100
AcDbPolyline
90
2
70
0
10
12.6188
20
1.25065
30
0
10
12.5704
20
1.21079
30
0
0
LWPOLYLINE
5
82
100
AcDbEntity
8
0
100
AcDbPolyline
90
2
70
0
10
12.5704
20
1.21079
30
0
10
13.2979
20
9.35464
30
0
0
LWPOLYLINE
5
83
100
AcDbEntity
8
0
100
AcDbPolyline
90
4
70
1
10
13.2979
20
9.35464
30
0
10
13.2979
20
9.35493
30
0
10
13.298
20
9.35522
30
0
10
13.298
20
9.35551
30
0
0
ENDSEC
0
EOF
