  0
SECTION
  2
HEADER
  9
$ACADVER
  1
AC1009
  9
$INSBASE
 10
0.0
 20
0.0
 30
0.0
  9
$EXTMIN
 10
1.387291947895531
 20
-0.4700125252015478
 30
0.0
  9
$EXTMAX
 10
13.3789906813726809
 20
11.0805676238932804
 30
0.0
  9
$LIMMIN
 10
0.0
 20
0.0
  9
$LIMMAX
 10
17.0
 20
11.0
  9
$ORTHOMODE
 70
     0
  9
$REGENMODE
 70
     1
  9
$FILLMODE
 70
     1
  9
$QTEXTMODE
 70
     0
  9
$MIRRTEXT
 70
     0
  9
$DRAGMODE
 70
     2
  9
$LTSCALE
 40
0.9350000000000001
  9
$OSMODE
 70
   135
  9
$ATTMODE
 70
     1
  9
$TEXTSIZE
 40
0.2
  9
$TRACEWID
 40
0.05
  9
$TEXTSTYLE
  7
STANDARD
  9
$CLAYER
  8
0
  9
$CELTYPE
  6
BYLAYER
  9
$CECOLOR
 62
   256
  9
$DIMSCALE
 40
1.0
  9
$DIMASZ
 40
0.1875
  9
$DIMEXO
 40
0.0625
  9
$DIMDLI
 40
0.6459999999999999
  9
$DIMRND
 40
0.0
  9
$DIMDLE
 40
0.0
  9
$DIMEXE
 40
0.125
  9
$DIMTP
 40
0.0
  9
$DIMTM
 40
0.0
  9
$DIMTXT
 40
0.15625
  9
$DIMCEN
 40
0.153
  9
$DIMTSZ
 40
0.0
  9
$DIMTOL
 70
     0
  9
$DIMLIM
 70
     0
  9
$DIMTIH
 70
     1
  9
$DIMTOH
 70
     1
  9
$DIMSE1
 70
     0
  9
$DIMSE2
 70
     0
  9
$DIMTAD
 70
     0
  9
$DIMZIN
 70
     0
  9
$DIMBLK
  1
_FILLED
  9
$DIMASO
 70
     1
  9
$DIMSHO
 70
     1
  9
$DIMPOST
  1

  9
$DIMAPOST
  1

  9
$DIMALT
 70
     0
  9
$DIMALTD
 70
     2
  9
$DIMALTF
 40
25.3999999999999986
  9
$DIMLFAC
 40
1.0
  9
$DIMTOFL
 70
     0
  9
$DIMTVP
 40
0.0
  9
$DIMTIX
 70
     0
  9
$DIMSOXD
 70
     0
  9
$DIMSAH
 70
     0
  9
$DIMBLK1
  1

  9
$DIMBLK2
  1

  9
$DIMSTYLE
  2
STANDARD
  9
$DIMCLRD
 70
     0
  9
$DIMCLRE
 70
     0
  9
$DIMCLRT
 70
     0
  9
$DIMTFAC
 40
1.0
  9
$DIMGAP
 40
0.09
  9
$LUNITS
 70
     2
  9
$LUPREC
 70
     4
  9
$SKETCHINC
 40
0.1
  9
$FILLETRAD
 40
0.0
  9
$AUNITS
 70
     0
  9
$AUPREC
 70
     0
  9
$MENU
  1
.
  9
$ELEVATION
 40
0.0
  9
$PELEVATION
 40
0.0
  9
$THICKNESS
 40
0.0
  9
$LIMCHECK
 70
     0
  9
$BLIPMODE
 70
     0
  9
$CHAMFERA
 40
0.0
  9
$CHAMFERB
 40
0.0
  9
$SKPOLY
 70
     0
  9
$TDCREATE
 40
2461122.804537036921829
  9
$TDUPDATE
 40
2461171.4938773149624467
  9
$TDINDWG
 40
0.0029861111
  9
$TDUSRTIMER
 40
0.0029861111
  9
$USRTIMER
 70
     1
  9
$ANGBASE
 50
0.0
  9
$ANGDIR
 70
     0
  9
$PDMODE
 70
     3
  9
$PDSIZE
 40
0.3125
  9
$PLINEWID
 40
0.0
  9
$COORDS
 70
     1
  9
$SPLFRAME
 70
     0
  9
$SPLINETYPE
 70
     6
  9
$SPLINESEGS
 70
     8
  9
$ATTDIA
 70
     1
  9
$ATTREQ
 70
     1
  9
$HANDLING
 70
     1
  9
$HANDSEED
  5
554
  9
$SURFTAB1
 70
     6
  9
$SURFTAB2
 70
     6
  9
$SURFTYPE
 70
     6
  9
$SURFU
 70
     6
  9
$SURFV
 70
     6
  9
$UCSNAME
  2

  9
$UCSORG
 10
0.0
 20
0.0
 30
0.0
  9
$UCSXDIR
 10
1.0
 20
0.0
 30
0.0
  9
$UCSYDIR
 10
0.0
 20
1.0
 30
0.0
  9
$PUCSNAME
  2

  9
$PUCSORG
 10
0.0
 20
0.0
 30
0.0
  9
$PUCSXDIR
 10
1.0
 20
0.0
 30
0.0
  9
$PUCSYDIR
 10
0.0
 20
1.0
 30
0.0
  9
$USERI1
 70
     0
  9
$USERI2
 70
     0
  9
$USERI3
 70
     0
  9
$USERI4
 70
     0
  9
$USERI5
 70
     0
  9
$USERR1
 40
0.0
  9
$USERR2
 40
0.0
  9
$USERR3
 40
0.0
  9
$USERR4
 40
0.0
  9
$USERR5
 40
0.0
  9
$WORLDVIEW
 70
     1
  9
$SHADEDGE
 70
     3
  9
$SHADEDIF
 70
    70
  9
$TILEMODE
 70
     1
  9
$MAXACTVP
 70
    64
  9
$PLIMCHECK
 70
     0
  9
$PEXTMIN
 10
1.0000000000000000E+20
 20
1.0000000000000000E+20
 30
1.0000000000000000E+20
  9
$PEXTMAX
 10
-1.0000000000000000E+20
 20
-1.0000000000000000E+20
 30
-1.0000000000000000E+20
  9
$PLIMMIN
 10
0.0
 20
0.0
  9
$PLIMMAX
 10
12.0
 20
9.0
  9
$UNITMODE
 70
     0
  9
$VISRETAIN
 70
     1
  9
$PLINEGEN
 70
     0
  9
$PSLTSCALE
 70
     1
  0
ENDSEC
  0
SECTION
  2
TABLES
  0
TABLE
  2
VPORT
 70
     1
  0
VPORT
  2
*ACTIVE
 70
     0
 10
0.0
 20
0.0
 11
1.0
 21
1.0
 12
7.3831413072787031
 22
5.6310570246102767
 13
0.0
 23
0.0
 14
1.0
 24
1.0
 15
0.0
 25
0.0
 16
0.0
 26
0.0
 36
1.0
 17
0.0
 27
0.0
 37
0.0
 40
11.6100000931425704
 41
2.1760204081632648
 42
50.0
 43
0.0
 44
0.0
 50
0.0
 51
0.0
 71
     0
 72
   100
 73
     1
 74
     1
 75
     0
 76
     0
 77
     0
 78
     0
  0
ENDTAB
  0
TABLE
  2
LTYPE
 70
     1
  0
LTYPE
  2
CONTINUOUS
 70
     0
  3
Solid line
 72
    65
 73
     0
 40
0.0
  0
ENDTAB
  0
TABLE
  2
LAYER
 70
     1
  0
LAYER
  2
0
 70
     0
 62
     7
  6
CONTINUOUS
  0
ENDTAB
  0
TABLE
  2
STYLE
 70
     2
  0
STYLE
  2
STANDARD
 70
     0
 40
0.0
 41
0.8
 50
0.0
 71
     0
 42
0.2
  3
txt
  4

  0
STYLE
  2
ANNOTATIVE
 70
     0
 40
0.0
 41
1.0
 50
0.0
 71
     0
 42
0.2
  3
txt
  4

  0
ENDTAB
  0
TABLE
  2
VIEW
 70
     0
  0
ENDTAB
  0
TABLE
  2
UCS
 70
     0
  0
ENDTAB
  0
TABLE
  2
APPID
 70
     5
  0
APPID
  2
ACAD
 70
     0
  0
APPID
  2
ACADANNOTATIVE
 70
     0
  0
APPID
  2
ACAD_EXEMPT_FROM_CAD_STANDARDS
 70
     0
  0
APPID
  2
ACAD_NAV_VCDISPLAY
 70
     0
  0
APPID
  2
ACAD_MLEADERVER
 70
     0
  0
ENDTAB
  0
TABLE
  2
DIMSTYLE
 70
     2
  0
DIMSTYLE
  2
STANDARD
 70
     0
  3

  4

  5

  6

  7

 40
1.0
 41
0.18
 42
0.0625
 43
0.38
 44
0.18
 45
0.0
 46
0.0
 47
0.0
 48
0.0
140
0.18
141
0.09
142
0.0
143
25.3999999999999986
144
1.0
145
0.0
146
1.0
147
0.09
 71
     0
 72
     0
 73
     1
 74
     1
 75
     0
 76
     0
 77
     0
 78
     0
170
     0
171
     2
172
     0
173
     0
174
     0
175
     0
176
     0
177
     0
178
     0
  0
DIMSTYLE
  2
ANNOTATIVE
 70
     0
  3

  4

  5

  6

  7

 40
1.0
 41
0.18
 42
0.0625
 43
0.38
 44
0.18
 45
0.0
 46
0.0
 47
0.0
 48
0.0
140
0.18
141
0.09
142
0.0
143
25.3999999999999986
144
1.0
145
0.0
146
1.0
147
0.09
 71
     0
 72
     0
 73
     1
 74
     1
 75
     0
 76
     0
 77
     0
 78
     0
170
     0
171
     2
172
     0
173
     0
174
     0
175
     0
176
     0
177
     0
178
     0
  0
ENDTAB
  0
ENDSEC
  0
SECTION
  2
BLOCKS
  0
BLOCK
  8
0
  2
$MODEL_SPACE
 70
     0
 10
0.0
 20
0.0
 30
0.0
  3
$MODEL_SPACE
  1

  0
ENDBLK
  5
474
  8
0
  0
BLOCK
 67
     1
  8
0
  2
$PAPER_SPACE
 70
     0
 10
0.0
 20
0.0
 30
0.0
  3
$PAPER_SPACE
  1

  0
ENDBLK
  5
470
 67
     1
  8
0
  0
BLOCK
  8
0
  2
_FILLED
 70
     0
 10
0.0
 20
0.0
 30
0.0
  3
_FILLED
  1

  0
SOLID
  5
8B
  8
0
  6
BYBLOCK
 62
     0
 10
0.0
 20
0.0
 30
0.0
 11
-1.0
 21
0.1666666667
 31
0.0
 12
-1.0
 22
-0.1666666667
 32
0.0
 13
-1.0
 23
-0.1666666667
 33
0.0
  0
ENDBLK
  5
8C
  8
0
  6
BYBLOCK
 62
     0
  0
ENDSEC
  0
SECTION
  2
ENTITIES
  0
POLYLINE
  5
11E
  8
0
  6
CONTINUOUS
 66
     1
 10
0.0
 20
0.0
 30
0.0
 70
     1
  0
VERTEX
  5
4A1
  8
0
  6
CONTINUOUS
 10
13.2979794431574305
 20
9.3557979111953351
 30
0.0
  0
VERTEX
  5
4A2
  8
0
  6
CONTINUOUS
 10
12.9296325837000001
 20
9.3857193386999995
 30
0.0
  0
VERTEX
  5
4A3
  8
0
  6
CONTINUOUS
 10
12.5608167324999993
 20
9.4093091822999995
 30
0.0
  0
VERTEX
  5
4A4
  8
0
  6
CONTINUOUS
 10
12.1916586513999992
 20
9.4265592216999998
 30
0.0
  0
VERTEX
  5
4A5
  8
0
  6
CONTINUOUS
 10
12.1914329842000004
 20
9.4204146174000005
 30
0.0
  0
VERTEX
  5
4A6
  8
0
  6
CONTINUOUS
 10
12.1147007068000008
 20
9.432493430800001
 30
0.0
  0
VERTEX
  5
4A7
  8
0
  6
CONTINUOUS
 10
11.7680850401000008
 20
9.4810483440999995
 30
0.0
  0
VERTEX
  5
4A8
  8
0
  6
CONTINUOUS
 10
11.8858678378999993
 20
9.6010230817999993
 30
0.0
  0
VERTEX
  5
4A9
  8
0
  6
CONTINUOUS
 10
11.9495227120000003
 20
10.0554318146000004
 30
0.0
  0
VERTEX
  5
4AA
  8
0
  6
CONTINUOUS
 10
13.1586843229999992
 20
9.8860490000999999
 30
0.0
 42
0.4142135623730951
  0
VERTEX
  5
4AB
  8
0
  6
CONTINUOUS
 10
13.2998166730321206
 20
9.9924992692375003
 30
0.0
  0
VERTEX
  5
4AC
  8
0
  6
CONTINUOUS
 10
13.3777819909000009
 20
10.5490649968000003
 30
0.0
 42
0.4142135623730951
  0
VERTEX
  5
4AD
  8
0
  6
CONTINUOUS
 10
13.2713317218625004
 20
10.6901973468321199
 30
0.0
  0
VERTEX
  5
4AE
  8
0
  6
CONTINUOUS
 10
11.1577931665999994
 20
10.9862678686000006
 30
0.0
 42
0.4142135623730951
  0
VERTEX
  5
4AF
  8
0
  6
CONTINUOUS
 10
11.0166608165678692
 20
10.8798175995625002
 30
0.0
  0
VERTEX
  5
4B0
  8
0
  6
CONTINUOUS
 10
10.8498886395999996
 20
9.6892923694000004
 30
0.0
  0
VERTEX
  5
4B1
  8
0
  6
CONTINUOUS
 10
10.9379828816
 20
9.5973314271000003
 30
0.0
  0
VERTEX
  5
4B2
  8
0
  6
CONTINUOUS
 10
10.5913672149
 20
9.6458863403999988
 30
0.0
  0
VERTEX
  5
4B3
  8
0
  6
CONTINUOUS
 10
10.5093326469000008
 20
9.6572939821000006
 30
0.0
  0
VERTEX
  5
4B4
  8
0
  6
CONTINUOUS
 10
10.4682746624625391
 20
9.6627932955383162
 30
0.0
 42
0.0669136219229861
  0
VERTEX
  5
4B5
  8
0
  6
CONTINUOUS
 10
4.7060463560999981
 20
9.6627932955000002
 30
0.0
  0
VERTEX
  5
4B6
  8
0
  6
CONTINUOUS
 10
4.6640975212000004
 20
9.6571725414999996
 30
0.0
  0
VERTEX
  5
4B7
  8
0
  6
CONTINUOUS
 10
4.5829538036999971
 20
9.6458863403999988
 30
0.0
  0
VERTEX
  5
4B8
  8
0
  6
CONTINUOUS
 10
4.2363381369999971
 20
9.5973314271000003
 30
0.0
  0
VERTEX
  5
4B9
  8
0
  6
CONTINUOUS
 10
4.3188400064999994
 20
9.7292142598000009
 30
0.0
  0
VERTEX
  5
4BA
  8
0
  6
CONTINUOUS
 10
4.1446197394999977
 20
10.9729086643000002
 30
0.0
 42
0.4142135623730951
  0
VERTEX
  5
4BB
  8
0
  6
CONTINUOUS
 10
4.0034873895374972
 20
11.0793589334321201
 30
0.0
  0
VERTEX
  5
4BC
  8
0
  6
CONTINUOUS
 10
1.9470724087
 20
10.7912904451999996
 30
0.0
 42
0.4142135623730951
  0
VERTEX
  5
4BD
  8
0
  6
CONTINUOUS
 10
1.840622139567875
 20
10.6501580952375008
 30
0.0
  0
VERTEX
  5
4BE
  8
0
  6
CONTINUOUS
 10
1.9099863015
 20
10.1549928570999999
 30
0.0
 42
0.4142135623730951
  0
VERTEX
  5
4BF
  8
0
  6
CONTINUOUS
 10
2.0511186514625002
 20
10.0485425879678694
 30
0.0
  0
VERTEX
  5
4C0
  8
0
  6
CONTINUOUS
 10
3.2628898298000002
 20
10.2182909582000008
 30
0.0
  0
VERTEX
  5
4C1
  8
0
  6
CONTINUOUS
 10
3.3504048943999978
 20
9.5935531012999995
 30
0.0
  0
VERTEX
  5
4C2
  8
0
  6
CONTINUOUS
 10
3.4659691202
 20
9.4894159333000001
 30
0.0
  0
VERTEX
  5
4C3
  8
0
  6
CONTINUOUS
 10
3.1193534535
 20
9.4408610199999998
 30
0.0
  0
VERTEX
  5
4C4
  8
0
  6
CONTINUOUS
 10
3.0426211760999968
 20
9.4287822065999993
 30
0.0
  0
VERTEX
  5
4C5
  8
0
  6
CONTINUOUS
 10
3.0423955088999981
 20
9.4349268109000004
 30
0.0
  0
VERTEX
  5
4C6
  8
0
  6
CONTINUOUS
 10
2.495611407699998
 20
9.4071098148000001
 30
0.0
  0
VERTEX
  5
4C7
  8
0
  6
CONTINUOUS
 10
1.949688552499999
 20
9.3653848093000001
 30
0.0
  0
VERTEX
  5
4C8
  8
0
  6
CONTINUOUS
 10
1.4050077655999991
 20
9.3097805603000001
 30
0.0
 42
0.4068468830636535
  0
VERTEX
  5
4C9
  8
0
  6
CONTINUOUS
 10
1.387371536593065
 20
9.2881289516555512
 30
0.0
  0
VERTEX
  5
4CA
  8
0
  6
CONTINUOUS
 10
2.145831709499999
 20
0.8117982587
 30
0.0
  0
VERTEX
  5
4CB
  8
0
  6
CONTINUOUS
 10
2.0388987038999971
 20
0.9334236840999999
 30
0.0
 42
0.2252743967770104
  0
VERTEX
  5
4CC
  8
0
  6
CONTINUOUS
 10
1.94043458502084
 20
0.9758033450853515
 30
0.0
  0
VERTEX
  5
4CD
  8
0
  6
CONTINUOUS
 10
1.8168773365999991
 20
0.971265572
 30
0.0
 42
0.4142135623730951
  0
VERTEX
  5
4CE
  8
0
  6
CONTINUOUS
 10
1.696549218514648
 20
0.8417621203208407
 30
0.0
  0
VERTEX
  5
4CF
  8
0
  6
CONTINUOUS
 10
1.740303283
 20
-0.349600192
 30
0.0
 42
0.4296850366370259
  0
VERTEX
  5
4D0
  8
0
  6
CONTINUOUS
 10
1.876359530052766
 20
-0.469515095868331
 30
0.0
  0
VERTEX
  5
4D1
  8
0
  6
CONTINUOUS
 10
2.0037597506
 20
-0.4581153527000001
 30
0.0
 42
0.2632152438489497
  0
VERTEX
  5
4D2
  8
0
  6
CONTINUOUS
 10
2.1050637625387991
 20
-0.3882135169596854
 30
0.0
  0
VERTEX
  5
4D3
  8
0
  6
CONTINUOUS
 10
2.230157033099998
 20
-0.130597076
 30
0.0
  0
VERTEX
  5
4D4
  8
0
  6
CONTINUOUS
 10
2.255565548493065
 20
-0.4145552677444429
 30
0.0
 42
0.4275334894961805
  0
VERTEX
  5
4D5
  8
0
  6
CONTINUOUS
 10
2.2781679377000001
 20
-0.4325921529
 30
0.0
  0
VERTEX
  5
4D6
  8
0
  6
CONTINUOUS
 10
2.8385431985
 20
-0.3703100293999999
 30
0.0
  0
VERTEX
  5
4D7
  8
0
  6
CONTINUOUS
 10
3.4011986081000001
 20
-0.3347824785
 30
0.0
  0
VERTEX
  5
4D8
  8
0
  6
CONTINUOUS
 10
3.4260093548000001
 20
-0.3334561662
 30
0.0
  0
VERTEX
  5
4D9
  8
0
  6
CONTINUOUS
 10
3.4516612025999982
 20
-0.331395132
 30
0.0
  0
VERTEX
  5
4DA
  8
0
  6
CONTINUOUS
 10
3.4781559251999981
 20
-0.3288311853
 30
0.0
  0
VERTEX
  5
4DB
  8
0
  6
CONTINUOUS
 10
5.936293838159111
 20
0.0155117995141563
 30
0.0
 42
-0.0697905863357124
  0
VERTEX
  5
4DC
  8
0
  6
CONTINUOUS
 10
9.2422342669000006
 20
0.0149224587999974
 30
0.0
  0
VERTEX
  5
4DD
  8
0
  6
CONTINUOUS
 10
11.7558982351000001
 20
-0.3371987745
 30
0.0
  0
VERTEX
  5
4DE
  8
0
  6
CONTINUOUS
 10
11.7824758979999995
 20
-0.3397702554999999
 30
0.0
  0
VERTEX
  5
4DF
  8
0
  6
CONTINUOUS
 10
11.8080981309999995
 20
-0.3418273807
 30
0.0
  0
VERTEX
  5
4E0
  8
0
  6
CONTINUOUS
 10
11.8328555522999999
 20
-0.3431500677
 30
0.0
  0
VERTEX
  5
4E1
  8
0
  6
CONTINUOUS
 10
12.1208033304999994
 20
-0.3579701836
 30
0.0
  0
VERTEX
  5
4E2
  8
0
  6
CONTINUOUS
 10
12.4082902119000007
 20
-0.3797975771
 30
0.0
 42
0.4138812537021678
  0
VERTEX
  5
4E3
  8
0
  6
CONTINUOUS
 10
12.4299677692214399
 20
-0.3616543761873905
 30
0.0
  0
VERTEX
  5
4E4
  8
0
  6
CONTINUOUS
 10
12.4448168408999997
 20
-0.1954243985
 30
0.0
  0
VERTEX
  5
4E5
  8
0
  6
CONTINUOUS
 10
12.4853518624381703
 20
-0.2508907573947925
 30
0.0
 42
0.2293724010768545
  0
VERTEX
  5
4E6
  8
0
  6
CONTINUOUS
 10
12.5815495328745595
 20
-0.3020470966628651
 30
0.0
  0
VERTEX
  5
4E7
  8
0
  6
CONTINUOUS
 10
12.8177355372000008
 20
-0.3109804824
 30
0.0
 42
0.4145345859311202
  0
VERTEX
  5
4E8
  8
0
  6
CONTINUOUS
 10
12.9473758835853499
 20
-0.1906574669791591
 30
0.0
  0
VERTEX
  5
4E9
  8
0
  6
CONTINUOUS
 10
12.9963578946999991
 20
1.1430545601999991
 30
0.0
 42
0.4138926116702166
  0
VERTEX
  5
4EA
  8
0
  6
CONTINUOUS
 10
12.8761666713254392
 20
1.272552909162864
 30
0.0
  0
VERTEX
  5
4EB
  8
0
  6
CONTINUOUS
 10
12.7030188796254393
 20
1.279101967862865
 30
0.0
 42
0.1838080273221386
  0
VERTEX
  5
4EC
  8
0
  6
CONTINUOUS
 10
12.6187936632
 20
1.2506518781
 30
0.0
  0
VERTEX
  5
4ED
  8
0
  6
CONTINUOUS
 10
12.5704321423999996
 20
1.2107933981999981
 30
0.0
  0
VERTEX
  5
4EE
  8
0
  6
CONTINUOUS
 10
13.2979098813214396
 20
9.3546431563126422
 30
0.0
 42
0.0144636272290784
  0
SEQEND
  5
4EF
  8
0
  6
CONTINUOUS
  0
POLYLINE
  5
11F
  8
0
  6
CONTINUOUS
 66
     1
 10
0.0
 20
0.0
 30
0.0
 70
     1
  0
VERTEX
  5
4F0
  8
0
  6
CONTINUOUS
 10
7.3921605092999974
 20
8.5005790786999942
 30
0.0
 42
0.9999999999999998
  0
VERTEX
  5
4F1
  8
0
  6
CONTINUOUS
 10
7.7821605092999988
 20
8.5005790786999942
 30
0.0
  0
VERTEX
  5
4F2
  8
0
  6
CONTINUOUS
 10
7.7821605092999988
 20
8.7105790787000004
 30
0.0
 42
0.9999999999999998
  0
VERTEX
  5
4F3
  8
0
  6
CONTINUOUS
 10
7.3921605092999974
 20
8.7105790787000004
 30
0.0
  0
SEQEND
  5
4F4
  8
0
  6
CONTINUOUS
  0
POLYLINE
  5
120
  8
0
  6
CONTINUOUS
 66
     1
 10
0.0
 20
0.0
 30
0.0
 70
     1
  0
VERTEX
  5
4F5
  8
0
  6
CONTINUOUS
 10
7.3921605092999974
 20
1.2755790787000001
 30
0.0
 42
0.9999999999999998
  0
VERTEX
  5
4F6
  8
0
  6
CONTINUOUS
 10
7.7821605092999988
 20
1.2755790787000001
 30
0.0
  0
VERTEX
  5
4F7
  8
0
  6
CONTINUOUS
 10
7.7821605092999988
 20
1.4855790787000001
 30
0.0
 42
0.9999999999999998
  0
VERTEX
  5
4F8
  8
0
  6
CONTINUOUS
 10
7.3921605092999974
 20
1.4855790787000001
 30
0.0
  0
SEQEND
  5
4F9
  8
0
  6
CONTINUOUS
  0
POLYLINE
  5
121
  8
0
  6
CONTINUOUS
 66
     1
 10
0.0
 20
0.0
 30
0.0
 70
     1
  0
VERTEX
  5
4FA
  8
0
  6
CONTINUOUS
 10
12.5668682861000001
 20
1.1708973176999991
 30
0.0
  0
VERTEX
  5
4FB
  8
0
  6
CONTINUOUS
 10
12.4483806971999993
 20
-0.155528318
 30
0.0
  0
VERTEX
  5
4FC
  8
0
  6
CONTINUOUS
 10
12.5375051219000007
 20
-0.0307231627
 30
0.0
  0
VERTEX
  5
4FD
  8
0
  6
CONTINUOUS
 10
12.6363509651000001
 20
1.0758202446
 30
0.0
  0
SEQEND
  5
4FE
  8
0
  6
CONTINUOUS
  0
POLYLINE
  5
122
  8
0
  6
CONTINUOUS
 66
     1
 10
0.0
 20
0.0
 30
0.0
 70
     1
  0
VERTEX
  5
4FF
  8
0
  6
CONTINUOUS
 10
11.6602705993000004
 20
9.8742777761999996
 30
0.0
  0
VERTEX
  5
500
  8
0
  6
CONTINUOUS
 10
11.6215923748000005
 20
9.5981681583
 30
0.0
  0
VERTEX
  5
501
  8
0
  6
CONTINUOUS
 10
11.7284718210999994
 20
9.4865974771000001
 30
0.0
  0
VERTEX
  5
502
  8
0
  6
CONTINUOUS
 10
10.9775961005999996
 20
9.5917822941999997
 30
0.0
  0
VERTEX
  5
503
  8
0
  6
CONTINUOUS
 10
11.1125662485000003
 20
9.6694739929999987
 30
0.0
  0
VERTEX
  5
504
  8
0
  6
CONTINUOUS
 10
11.1512444729000002
 20
9.9455836108999982
 30
0.0
  0
SEQEND
  5
505
  8
0
  6
CONTINUOUS
  0
POLYLINE
  5
123
  8
0
  6
CONTINUOUS
 66
     1
 10
0.0
 20
0.0
 30
0.0
 70
     1
  0
VERTEX
  5
506
  8
0
  6
CONTINUOUS
 10
4.1967249179000001
 20
9.5917822941999997
 30
0.0
  0
VERTEX
  5
507
  8
0
  6
CONTINUOUS
 10
3.5055823392000001
 20
9.4949650663000007
 30
0.0
  0
VERTEX
  5
508
  8
0
  6
CONTINUOUS
 10
3.5806688227999981
 20
9.6001208496999997
 30
0.0
  0
VERTEX
  5
509
  8
0
  6
CONTINUOUS
 10
3.5429425799000001
 20
9.8694346207999981
 30
0.0
  0
VERTEX
  5
50A
  8
0
  6
CONTINUOUS
 10
4.0378867872999971
 20
9.9387678200000007
 30
0.0
  0
VERTEX
  5
50B
  8
0
  6
CONTINUOUS
 10
4.077355716799997
 20
9.6570136495999996
 30
0.0
  0
SEQEND
  5
50C
  8
0
  6
CONTINUOUS
  0
POLYLINE
  5
124
  8
0
  6
CONTINUOUS
 66
     1
 10
0.0
 20
0.0
 30
0.0
 70
     1
  0
VERTEX
  5
50D
  8
0
  6
CONTINUOUS
 10
1.919417454699996
 20
0.0570195763
 30
0.0
  0
VERTEX
  5
50E
  8
0
  6
CONTINUOUS
 10
2.1141955376000001
 20
0.0371328314
 30
0.0
  0
VERTEX
  5
50F
  8
0
  6
CONTINUOUS
 10
2.2265871604999981
 20
-0.0907012164
 30
0.0
  0
VERTEX
  5
510
  8
0
  6
CONTINUOUS
 10
2.1494015820999981
 20
0.7719023991
 30
0.0
  0
VERTEX
  5
511
  8
0
  6
CONTINUOUS
 10
2.0714814048000001
 20
0.664549497
 30
0.0
  0
VERTEX
  5
512
  8
0
  6
CONTINUOUS
 10
1.8878728558999991
 20
0.6481202452
 30
0.0
  0
SEQEND
  5
513
  8
0
  6
CONTINUOUS
  0
ENDSEC
  0
EOF
